<?xml version="1.0" encoding="UTF-8" standalone="no"?>
<!-- Created with Bouml (http://bouml.free.fr/) -->
<!DOCTYPE svg PUBLIC "-//W3C//DTD SVG 1.1//EN" "http://www.w3.org/Graphics/SVG/1.1/DTD/svg11.dtd">
<svg width="741" height="683" version="1.1" xmlns="http://www.w3.org/2000/svg">
<g>
	<rect fill="#808080" stroke="none" stroke-opacity="1" x="507" y="102" width="3" height="33" />
	<rect fill="#808080" stroke="none" stroke-opacity="1" x="443" y="132" width="67" height="3" />
	<rect fill="#ffffc0" stroke="black" stroke-width="1" stroke-opacity="1" x="439" y="98" width="68" height="34" />
	<text font-family="Helvetica" font-size="9" fill="#000000" xml:space="preserve" font-weight="bold" text-anchor="middle" x="473" y="109">UpnpClient</text>
	<line stroke="black" stroke-opacity="1" x1="439" y1="117" x2="507" y2="117" />
	<line stroke="black" stroke-opacity="1" x1="439" y1="125" x2="507" y2="125" />
</g>
<g>
	<polygon fill="#c0ffff" stroke="black" stroke-opacity="1" points="538,358 702,358 702,368 712,368 712,408 538,408 538,358" />
	<line stroke="black" stroke-opacity="1" x1="702" y1="358" x2="712" y2="368" />
	<text font-family="Helvetica" font-size="9" fill="#000000" xml:space="preserve" x="548" y="383">Providing AVTransportService</text>
	<text font-family="Helvetica" font-size="9" fill="#000000" xml:space="preserve" x="548" y="399">and ContenDirectory</text>
</g>
<g>
	<rect fill="#808080" stroke="none" stroke-opacity="1" x="189" y="49" width="3" height="33" />
	<rect fill="#808080" stroke="none" stroke-opacity="1" x="51" y="79" width="141" height="3" />
	<rect fill="#ffffc0" stroke="black" stroke-width="1" stroke-opacity="1" x="47" y="45" width="142" height="34" />
	<text font-family="Helvetica" font-size="9" fill="#000000" xml:space="preserve" font-weight="bold" text-anchor="middle" x="118" y="56">BackgroundMusicService</text>
	<line stroke="black" stroke-opacity="1" x1="47" y1="64" x2="189" y2="64" />
	<line stroke="black" stroke-opacity="1" x1="47" y1="72" x2="189" y2="72" />
</g>
<g>
	<polygon fill="#c0ffff" stroke="black" stroke-opacity="1" points="366,458 628,458 628,468 638,468 638,572 366,572 366,458" />
	<line stroke="black" stroke-opacity="1" x1="628" y1="458" x2="638" y2="468" />
	<text font-family="Helvetica" font-size="9" fill="#000000" xml:space="preserve" x="376" y="483">Content browsing</text>
	<text font-family="Helvetica" font-size="9" fill="#000000" xml:space="preserve" x="376" y="499">Device list </text>
	<text font-family="Helvetica" font-size="9" fill="#000000" xml:space="preserve" x="376" y="515">Settingsmenu</text>
	<text font-family="Helvetica" font-size="9" fill="#000000" xml:space="preserve" x="376" y="531"></text>
	<text font-family="Helvetica" font-size="9" fill="#000000" xml:space="preserve" x="376" y="547">possible we need more than one activity for this</text>
</g>
<g>
	<polygon fill="#c0ffff" stroke="black" stroke-opacity="1" points="48,370 152,370 152,380 162,380 162,424 48,424 48,370" />
	<line stroke="black" stroke-opacity="1" x1="152" y1="370" x2="162" y2="380" />
	<text font-family="Helvetica" font-size="9" fill="#000000" xml:space="preserve" x="58" y="395">displays</text>
	<text font-family="Helvetica" font-size="9" fill="#000000" xml:space="preserve" x="58" y="411">slideshows</text>
</g>
<g>
	<polygon fill="#c0ffff" stroke="black" stroke-opacity="1" points="236,135 332,135 332,145 342,145 342,169 236,169 236,135" />
	<line stroke="black" stroke-opacity="1" x1="332" y1="135" x2="342" y2="145" />
	<text font-family="Helvetica" font-size="9" fill="#000000" xml:space="preserve" x="246" y="160">start and control</text>
</g>
<g>
	<rect fill="#808080" stroke="none" stroke-opacity="1" x="187" y="286" width="3" height="33" />
	<rect fill="#808080" stroke="none" stroke-opacity="1" x="77" y="316" width="113" height="3" />
	<rect fill="#ffffc0" stroke="black" stroke-width="1" stroke-opacity="1" x="73" y="282" width="114" height="34" />
	<text font-family="Helvetica" font-size="9" fill="#000000" xml:space="preserve" font-weight="bold" text-anchor="middle" x="130" y="293">ImageViewerActivity</text>
	<line stroke="black" stroke-opacity="1" x1="73" y1="301" x2="187" y2="301" />
	<line stroke="black" stroke-opacity="1" x1="73" y1="309" x2="187" y2="309" />
</g>
<g>
	<polygon fill="#c0ffff" stroke="black" stroke-opacity="1" points="43,156 191,156 191,166 201,166 201,218 43,218 43,156" />
	<line stroke="black" stroke-opacity="1" x1="191" y1="156" x2="201" y2="166" />
	<text font-family="Helvetica" font-size="9" fill="#000000" xml:space="preserve" x="53" y="181">Should receive broadcast</text>
	<text font-family="Helvetica" font-size="9" fill="#000000" xml:space="preserve" x="53" y="197">messages from UpnpClient</text>
	<text font-family="Helvetica" font-size="9" fill="#000000" xml:space="preserve" x="53" y="213">in order to control the</text>
	<text font-family="Helvetica" font-size="9" fill="#000000" xml:space="preserve" x="53" y="229">activitc / service</text>
</g>
<g>
	<polygon fill="#c0ffff" stroke="black" stroke-opacity="1" points="248,12 426,12 426,22 436,22 436,64 248,64 248,12" />
	<line stroke="black" stroke-opacity="1" x1="426" y1="12" x2="436" y2="22" />
	<text font-family="Helvetica" font-size="9" fill="#000000" xml:space="preserve" x="258" y="37">need icon in system tray in order</text>
	<text font-family="Helvetica" font-size="9" fill="#000000" xml:space="preserve" x="258" y="53">to be controled by the user</text>
</g>
<g>
	<polygon fill="#c0ffff" stroke="black" stroke-opacity="1" points="112,633 338,633 338,643 348,643 348,671 112,671 112,633" />
	<line stroke="black" stroke-opacity="1" x1="338" y1="633" x2="348" y2="643" />
	<text font-family="Helvetica" font-size="9" fill="#000000" xml:space="preserve" x="122" y="658">MainActivity which is lanched by app start</text>
</g>
<g>
	<line stroke-dasharray="4,4" stroke="black" stroke-opacity="1" x1="247" y1="48" x2="193" y2="54" />
</g>
<g>
	<line stroke="black" stroke-opacity="1" x1="165" y1="281" x2="173" y2="283" />
	<line stroke="black" stroke-opacity="1" x1="165" y1="281" x2="167" y2="272" />
	<line stroke-dasharray="4,4" stroke="black" stroke-opacity="1" x1="438" y1="135" x2="165" y2="281" />
</g>
<g>
	<line stroke-dasharray="4,4" stroke="black" stroke-opacity="1" x1="121" y1="155" x2="120" y2="83" />
</g>
<g>
	<line stroke-dasharray="4,4" stroke="black" stroke-opacity="1" x1="111" y1="369" x2="124" y2="320" />
</g>
<g>
	<line stroke="black" stroke-opacity="1" x1="193" y1="73" x2="198" y2="79" />
	<line stroke="black" stroke-opacity="1" x1="193" y1="73" x2="199" y2="67" />
	<line stroke-dasharray="4,4" stroke="black" stroke-opacity="1" x1="438" y1="110" x2="193" y2="73" />
</g>
<g>
	<line stroke-dasharray="4,4" stroke="black" stroke-opacity="1" x1="124" y1="218" x2="130" y2="281" />
</g>
<g>
	<line stroke-dasharray="4,4" stroke="black" stroke-opacity="1" x1="295" y1="134" x2="314" y2="91" />
</g>
<g>
	<rect fill="#808080" stroke="none" stroke-opacity="1" x="725" y="259" width="3" height="33" />
	<rect fill="#808080" stroke="none" stroke-opacity="1" x="591" y="289" width="137" height="3" />
	<rect fill="#ffffc0" stroke="black" stroke-width="1" stroke-opacity="1" x="587" y="255" width="138" height="34" />
	<text font-family="Helvetica" font-size="9" fill="#000000" xml:space="preserve" font-weight="bold" text-anchor="middle" x="656" y="266">YaaccUpnpServerService</text>
	<line stroke="black" stroke-opacity="1" x1="587" y1="274" x2="725" y2="274" />
	<line stroke="black" stroke-opacity="1" x1="587" y1="282" x2="725" y2="282" />
</g>
<g>
	<rect fill="#808080" stroke="none" stroke-opacity="1" x="203" y="485" width="3" height="33" />
	<rect fill="#808080" stroke="none" stroke-opacity="1" x="135" y="515" width="71" height="3" />
	<rect fill="#ffffc0" stroke="black" stroke-width="1" stroke-opacity="1" x="131" y="481" width="72" height="34" />
	<text font-family="Helvetica" font-size="9" fill="#000000" xml:space="preserve" font-weight="bold" text-anchor="middle" x="167" y="492">MainActivity</text>
	<line stroke="black" stroke-opacity="1" x1="131" y1="500" x2="203" y2="500" />
	<line stroke="black" stroke-opacity="1" x1="131" y1="508" x2="203" y2="508" />
</g>
<g>
	<line stroke="black" stroke-opacity="1" x1="497" y1="136" x2="497" y2="144" />
	<line stroke="black" stroke-opacity="1" x1="497" y1="136" x2="505" y2="135" />
	<line stroke="black" stroke-opacity="1" x1="635" y1="254" x2="497" y2="136" />
</g>
<g>
	<line stroke="black" stroke-opacity="1" x1="457" y1="136" x2="448" y2="136" />
	<line stroke="black" stroke-opacity="1" x1="457" y1="136" x2="457" y2="144" />
	<line stroke="black" stroke-opacity="1" x1="183" y1="480" x2="457" y2="136" />
</g>
<g>
	<line stroke-dasharray="4,4" stroke="black" stroke-opacity="1" x1="632" y1="357" x2="651" y2="293" />
</g>
<g>
	<line stroke-dasharray="4,4" stroke="black" stroke-opacity="1" x1="221" y1="632" x2="175" y2="519" />
</g>
<g>
	<line stroke-dasharray="4,4" stroke="black" stroke-opacity="1" x1="365" y1="508" x2="207" y2="501" />
</g>
<g>
	<text font-family="Helvetica" font-size="9" fill="#000000" xml:space="preserve" x="507" y="133">upnpClient</text>
</g>
<g>
	<text font-family="Helvetica" font-size="9" fill="#000000" xml:space="preserve" text-decoration="underline" x="462" y="152">uClient</text>
</g>
</svg>
